<svg width="24" height="20" viewBox="0 0 24 20" fill="none" xmlns="http://www.w3.org/2000/svg">
<path d="M23.25 16.6667H3V0.833333C3 0.372917 2.66438 0 2.25 0H0.75C0.335625 0 0 0.372917 0 0.833333V18.3333C0 19.2536 0.671719 20 1.5 20H23.25C23.6644 20 24 19.6271 24 19.1667V17.5C24 17.0396 23.6644 16.6667 23.25 16.6667ZM21.75 1.66667H16.2159C15.2137 1.66667 14.7117 3.01302 15.4205 3.80052L16.9392 5.48802L13.5 9.3099L10.0608 5.48854C9.47484 4.8375 8.52516 4.8375 7.93969 5.48854L4.71984 9.06615C4.42688 9.39167 4.42688 9.91927 4.71984 10.2448L5.78016 11.4229C6.07312 11.7484 6.54797 11.7484 6.84094 11.4229L9 9.02344L12.4392 12.8448C13.0252 13.4958 13.9748 13.4958 14.5603 12.8448L19.0603 7.84479L20.5791 9.53229C21.2878 10.3198 22.4995 9.76198 22.4995 8.64844V2.5C22.5 2.03958 22.1644 1.66667 21.75 1.66667Z" fill="white" fill-opacity="0.9"/>
</svg>
