<svg width="17" height="22" viewBox="0 0 17 22" fill="none" xmlns="http://www.w3.org/2000/svg">
<path d="M7.40214 21.5561C1.15887 12.5052 0 11.5763 0 8.25C0 3.69364 3.69364 0 8.25 0C12.8064 0 16.5 3.69364 16.5 8.25C16.5 11.5763 15.3411 12.5052 9.09786 21.5561C8.68815 22.148 7.8118 22.1479 7.40214 21.5561ZM8.25 11.6875C10.1485 11.6875 11.6875 10.1485 11.6875 8.25C11.6875 6.35151 10.1485 4.8125 8.25 4.8125C6.35151 4.8125 4.8125 6.35151 4.8125 8.25C4.8125 10.1485 6.35151 11.6875 8.25 11.6875Z" fill="white" fill-opacity="0.9"/>
</svg>
