<svg width="24" height="24" viewBox="0 0 24 24" fill="none" xmlns="http://www.w3.org/2000/svg">
<path d="M5.52941 13.1111H3.17647C2.52672 13.1111 2 13.6086 2 14.2223V20.8889C2 21.5026 2.52672 22 3.17647 22H5.52941C6.17916 22 6.70588 21.5026 6.70588 20.8889V14.2223C6.70588 13.6086 6.17916 13.1111 5.52941 13.1111Z" stroke="white" stroke-opacity="0.9" stroke-width="3" stroke-linejoin="round"/>
<path d="M13.1764 7.55554H10.8234C10.1737 7.55554 9.64697 8.053 9.64697 8.66665V20.8889C9.64697 21.5025 10.1737 22 10.8234 22H13.1764C13.8261 22 14.3529 21.5025 14.3529 20.8889V8.66665C14.3529 8.053 13.8261 7.55554 13.1764 7.55554Z" stroke="white" stroke-opacity="0.9" stroke-width="3" stroke-linejoin="round"/>
<path d="M20.8236 2H18.4707C17.8209 2 17.2942 2.49746 17.2942 3.11111V20.8889C17.2942 21.5025 17.8209 22 18.4707 22H20.8236C21.4733 22 22.0001 21.5025 22.0001 20.8889V3.11111C22.0001 2.49746 21.4733 2 20.8236 2Z" stroke="white" stroke-opacity="0.9" stroke-width="3" stroke-linejoin="round"/>
</svg>
