<svg width="26" height="24" viewBox="0 0 26 24" fill="none" xmlns="http://www.w3.org/2000/svg">
<path d="M5.0303 2V8.06061M2 5.0303H8.06061M5.63636 17.1515V22M3.21212 19.5758H8.06061M12.3127 9.61576C9.74546 10.3503 8.46182 10.7164 8.27636 11.3648C8.21451 11.5819 8.21451 11.812 8.27636 12.0291C8.46182 12.6776 9.74546 13.0436 12.3127 13.7782C12.8279 13.9248 13.0848 13.9988 13.28 14.1588C13.3502 14.2169 13.4136 14.2828 13.4691 14.3552C13.623 14.5552 13.6885 14.8158 13.8182 15.3358C14.5636 18.3152 14.9358 19.8048 15.6242 19.9903C15.8303 20.0461 16.0485 20.0461 16.2545 19.9903C16.943 19.8061 17.3152 18.3152 18.0606 15.3358C18.1903 14.8145 18.2545 14.5552 18.4097 14.3539C18.4653 14.2824 18.5287 14.2174 18.5988 14.16C18.7927 13.9988 19.0509 13.9248 19.5648 13.7782C22.1345 13.0436 23.417 12.6776 23.6012 12.0291C23.6631 11.812 23.6631 11.5819 23.6012 11.3648C23.417 10.7164 22.1345 10.3503 19.5648 9.61576C19.0509 9.46909 18.7939 9.39515 18.5988 9.23515C18.5286 9.17702 18.4651 9.11114 18.4097 9.03879C18.2545 8.83879 18.1903 8.57818 18.0606 8.05818C17.3152 5.07879 16.943 3.58788 16.2545 3.40364C16.0481 3.34805 15.8307 3.34805 15.6242 3.40364C14.9358 3.58788 14.5636 5.07879 13.8182 8.05818C13.6885 8.57939 13.6242 8.83879 13.4691 9.04C13.4135 9.11151 13.3501 9.17656 13.28 9.23394C13.0861 9.39515 12.8267 9.46909 12.3127 9.61576Z" stroke="white" stroke-opacity="0.9" stroke-width="3" stroke-linecap="round" stroke-linejoin="round"/>
</svg>
